<svg width="34" height="34" viewBox="0 0 34 34" fill="none" xmlns="http://www.w3.org/2000/svg">
<rect width="34" height="34" rx="4" fill="#FDDFC7"/>
<path d="M15.5762 24H12.5391L12.5586 22.0566H15.5762C16.4551 22.0566 17.1908 21.8646 17.7832 21.4805C18.3822 21.0964 18.8314 20.5462 19.1309 19.8301C19.4368 19.1139 19.5898 18.2611 19.5898 17.2715V16.5C19.5898 15.7318 19.502 15.0514 19.3262 14.459C19.1569 13.8665 18.903 13.3685 18.5645 12.9648C18.2324 12.5612 17.8223 12.2552 17.334 12.0469C16.8522 11.8385 16.2956 11.7344 15.6641 11.7344H12.4805V9.78125H15.6641C16.6081 9.78125 17.4707 9.94076 18.252 10.2598C19.0332 10.5723 19.707 11.0247 20.2734 11.6172C20.8464 12.2096 21.2858 12.9193 21.5918 13.7461C21.8978 14.5729 22.0508 15.4974 22.0508 16.5195V17.2715C22.0508 18.2936 21.8978 19.2181 21.5918 20.0449C21.2858 20.8717 20.8464 21.5814 20.2734 22.1738C19.7005 22.7598 19.0169 23.2122 18.2227 23.5312C17.4349 23.8438 16.5527 24 15.5762 24ZM13.8965 9.78125V24H11.4453V9.78125H13.8965Z" fill="black"/>
</svg>
